<?xml version="1.0" encoding="UTF-8"?>
<!DOCTYPE svg PUBLIC "-//W3C//DTD SVG 1.1//EN" "http://www.w3.org/Graphics/SVG/1.1/DTD/svg11.dtd">
<!-- Creator: CorelDRAW 2020 (64-Bit) -->
<svg xmlns="http://www.w3.org/2000/svg" xml:space="preserve" width="3.3866mm" height="3.3866mm" version="1.1" style="shape-rendering:geometricPrecision; text-rendering:geometricPrecision; image-rendering:optimizeQuality; fill-rule:evenodd; clip-rule:evenodd"
viewBox="0 0 338.66 338.66"
 xmlns:xlink="http://www.w3.org/1999/xlink"
 xmlns:xodm="http://www.corel.com/coreldraw/odm/2003">
 <defs>
  <style type="text/css">
   <![CDATA[
    .fil0 {fill:black}
    .fil1 {fill:#FCF9F9;fill-rule:nonzero}
   ]]>
  </style>
 </defs>
 <g id="Capa_x0020_1">
  <metadata id="CorelCorpID_0Corel-Layer"/>
  <polygon class="fil0" points="-0.93,-0.11 337.74,-0.11 337.74,338.56 -0.93,338.56 "/>
  <g id="mountain.svg">
   <g>
    <path class="fil1" d="M313.66 280.5l-26.95 -42.37 -18.04 18.04c-2.86,2.86 -7.49,2.86 -10.34,0l-15.14 -15.13 -33.01 16.5c-1.04,0.52 -2.16,0.77 -3.27,0.77 -1.89,0 -3.77,-0.73 -5.17,-2.14l-16.35 -16.34 -22.18 40.68 150.45 0 0 -0.01z"/>
    <path class="fil1" d="M192.06 197.03l18.8 -34.47c4.39,-8.05 12.48,-13.04 21.64,-13.35 9.13,-0.3 17.57,4.13 22.49,11.86l30.52 47.96c22.4,-17.04 36.88,-43.95 36.88,-74.18 0,-51.38 -41.8,-93.17 -93.17,-93.17 -43.88,0 -80.75,30.51 -90.57,71.42l53.41 83.93z"/>
    <path class="fil1" d="M208.35 242.1l33 -16.51c2.82,-1.4 6.22,-0.86 8.45,1.37l13.68 13.69 15.33 -14.91 -36.16 -56.82c-2.11,-3.33 -5.74,-5.25 -9.66,-5.1 -3.94,0.14 -7.41,2.28 -9.29,5.73l-31.04 56.91 15.69 15.64z"/>
    <path class="fil1" d="M155.49 199.59c-2.85,2.85 -7.48,2.85 -10.34,0l-13.69 -13.69 -32.55 32.55c-1.42,1.42 -3.29,2.14 -5.17,2.14 -1.74,0 -3.48,-0.62 -4.86,-1.85l-24.2 -21.57 -45.47 83.33 127.33 0 37.53 -68.8 -15.83 -24.87 -12.75 12.76z"/>
    <path class="fil1" d="M93.44 203.22l32.85 -32.85c2.85,-2.85 7.48,-2.85 10.34,0l13.69 13.69 9.87 -9.87 -34.67 -54.49c-2.11,-3.32 -5.73,-5.25 -9.66,-5.09 -3.94,0.13 -7.41,2.27 -9.29,5.73l-34.73 63.66 21.6 19.22z"/>
   </g>
   <g>
   </g>
   <g>
   </g>
   <g>
   </g>
   <g>
   </g>
   <g>
   </g>
   <g>
   </g>
   <g>
   </g>
   <g>
   </g>
   <g>
   </g>
   <g>
   </g>
   <g>
   </g>
   <g>
   </g>
   <g>
   </g>
   <g>
   </g>
   <g>
   </g>
  </g>
 </g>
</svg>
