<?xml version="1.0" encoding="UTF-8"?>
<!DOCTYPE svg PUBLIC "-//W3C//DTD SVG 1.1//EN" "http://www.w3.org/Graphics/SVG/1.1/DTD/svg11.dtd">
<!-- Creator: CorelDRAW 2020 (64-Bit) -->
<svg xmlns="http://www.w3.org/2000/svg" xml:space="preserve" width="4.2332mm" height="4.2332mm" version="1.1" style="shape-rendering:geometricPrecision; text-rendering:geometricPrecision; image-rendering:optimizeQuality; fill-rule:evenodd; clip-rule:evenodd"
viewBox="0 0 423.32 423.32"
 xmlns:xlink="http://www.w3.org/1999/xlink"
 xmlns:xodm="http://www.corel.com/coreldraw/odm/2003">
 <defs>
  <style type="text/css">
   <![CDATA[
    .fil0 {fill:white}
    .fil1 {fill:white;fill-rule:nonzero}
   ]]>
  </style>
 </defs>
 <g id="Capa_x0020_1">
  <metadata id="CorelCorpID_0Corel-Layer"/>
  <g id="_1033369408">
   <polygon class="fil0" points="402.16,21.16 366.64,34.78 359.83,41.61 372.24,40.17 382.68,50.64 381.64,63.49 389.87,55.23 "/>
   <polygon class="fil0" points="21.17,21.14 34.73,56.69 41.56,63.51 40.13,51.1 50.62,40.67 63.47,41.73 55.22,33.49 "/>
   <polygon class="fil0" points="47.13,383.23 40.5,376.14 15.26,379.67 0.32,397.09 26.37,397.09 26.37,423.14 44,409.27 "/>
   <polygon class="fil0" points="383.21,376.22 376.12,382.85 379.65,408.09 397.07,423.03 397.07,396.98 423.12,396.98 409.25,379.35 "/>
   <polygon class="fil0" points="377.51,384.05 211.69,218.92 46.15,384.05 38.97,376.86 204.5,211.34 39.26,46.1 46.48,39.26 211.69,204.48 376.91,39.27 384.19,46.55 218.98,211.76 384.36,377.13 "/>
   <path class="fil1" d="M49.31 155.07l18.8 0.35 28.85 -0.35c3.47,0 5.19,0.59 5.19,1.73 0,0.84 -0.91,1.37 -2.78,1.6 -7.62,0.79 -12.38,3.1 -14.29,6.85 -1.87,3.77 -2.82,17.69 -2.82,41.78 0,8.83 0.28,18.81 0.81,29.89 0.56,11.05 1.2,17.69 1.87,19.85 0.67,2.17 1.98,3.92 3.92,5.3 1.94,1.37 5.5,2.33 10.72,2.92 1.73,0.18 2.57,0.73 2.57,1.67 0,1.05 -0.77,1.58 -2.36,1.58l-25.71 -0.18 -21.83 0.18c-2.44,0 -3.65,-0.59 -3.65,-1.73 0,-1.2 0.96,-1.78 2.9,-1.78 6.45,-0.12 10.23,-1.88 11.33,-5.33 1.09,-3.42 1.65,-14.32 1.65,-32.78 0,-17.8 -0.17,-32.19 -0.56,-43.21 -0.4,-11.03 -1.52,-17.75 -3.35,-20.21 -1.87,-2.46 -5.41,-4.01 -10.56,-4.62 -1.93,-0.29 -2.88,-0.94 -2.88,-1.96 0,-1.02 0.74,-1.55 2.18,-1.55z"/>
   <path class="fil1" d="M198.08 289.46l1.63 0.08c7.33,0.49 16.93,0.74 28.82,0.74 5.25,0 9.81,-0.05 13.69,-0.19 2.28,-0.08 4.02,-0.14 5.19,-0.14 2.14,0 3.19,0.5 3.19,1.46 0,1.01 -0.91,1.51 -2.71,1.51 -5.47,0 -9.38,0.88 -11.71,2.61 -2.32,1.75 -3.73,6.37 -4.26,13.84 -0.54,7.47 -0.78,15.66 -0.78,24.59l0 29.33c0,11.87 -4.09,20.38 -12.31,25.55 -8.19,5.16 -16.29,7.74 -24.31,7.74 -6.1,0 -11.29,-1.18 -15.49,-3.54 -4.2,-2.36 -6.31,-5.55 -6.31,-9.59 0,-2.41 0.84,-4.34 2.58,-5.79 1.69,-1.46 3.91,-2.17 6.56,-2.17 2.61,0 4.69,0.63 6.28,1.89 1.58,1.27 2.36,2.69 2.36,4.32 0,0.96 -0.42,2.06 -1.23,3.29 -1.17,1.57 -1.73,2.75 -1.73,3.54 0,1.35 0.74,2.45 2.18,3.3 1.45,0.85 3.21,1.29 5.29,1.29 4.91,0 8.96,-1.29 12.14,-3.9 3.18,-2.61 5.04,-6.7 5.57,-12.25 0.56,-5.58 0.85,-17.55 0.85,-35.93 0,-22.41 -0.39,-35.87 -1.2,-40.38 -0.78,-4.53 -5.39,-7.11 -13.83,-7.74 -1.98,-0.17 -2.97,-0.72 -2.97,-1.65 0,-1.21 0.85,-1.81 2.51,-1.81z"/>
   <path class="fil1" d="M373.68 164.29c2.31,-2.71 3.62,-4.55 3.96,-5.51 0.43,-1.33 1.03,-2.01 1.82,-2.01 0.86,0 1.3,0.99 1.39,3l1.41 29.04c0,1.66 -0.04,2.68 -0.15,3.05 -0.11,0.37 -0.4,0.54 -0.92,0.54 -0.66,0 -1.39,-1.19 -2.14,-3.57 -2.76,-8.87 -6.61,-16.09 -11.55,-21.71 -4.99,-5.66 -10.38,-8.49 -16.2,-8.49 -5.11,0 -9.8,2.18 -14.08,6.54 -4.28,4.32 -7.6,10.54 -9.95,18.6 -2.38,8.06 -3.55,16.71 -3.55,25.96 0,15.72 3.27,28.5 9.82,38.34 6.55,9.82 13.87,14.74 21.93,14.74 5.5,0 10.53,-2.29 15.13,-6.88 4.6,-4.58 8.09,-9.89 10.42,-15.91 0.64,-1.67 1.29,-2.49 1.95,-2.49 0.92,0 1.39,0.65 1.39,1.98 0,1.61 -1.61,5.11 -4.77,10.52 -3.19,5.4 -7.36,9.78 -12.52,13.14 -5.18,3.37 -10.74,5.07 -16.67,5.07 -7,0 -13.63,-2.35 -19.92,-7.05 -6.31,-4.72 -11.3,-11.19 -14.98,-19.51 -3.68,-8.28 -5.52,-18.04 -5.52,-29.21 0,-10.94 1.8,-20.81 5.37,-29.6 3.57,-8.8 8.63,-15.64 15.1,-20.5 6.49,-4.87 13.21,-7.3 20.12,-7.3 3.68,0 7.44,0.77 11.3,2.29 3.85,1.53 7.79,3.85 11.81,6.93z"/>
   <path class="fil1" d="M213.92 145.39l-4.73 0c-2.52,-8.1 -6.51,-19.14 -11.92,-33.15l-15.22 -39.2c-4.72,-12.11 -8,-19.69 -9.87,-22.69 -1.84,-3.02 -3.65,-5.05 -5.41,-6.12 -1.78,-1.07 -4.28,-1.73 -7.5,-2.01 -1.34,-0.11 -2,-0.57 -2,-1.45 0,-1.02 0.66,-1.51 2,-1.51l42.18 0c2.63,0 3.95,0.46 3.95,1.37 0,1.15 -0.85,1.76 -2.58,1.76 -7.09,0 -10.6,3.02 -10.6,9.09 0,1.45 0.3,3.76 0.96,6.92 0.63,3.16 1.76,7.06 3.32,11.67 1.6,4.62 5,14.07 10.22,28.35 5.25,14.31 8.57,23.1 10.03,26.37l17.19 -47.71c4.96,-13.54 7.43,-22.03 7.43,-25.52 0,-5.63 -3.5,-8.76 -10.48,-9.34 -1.4,-0.11 -2.08,-0.6 -2.08,-1.54 0,-0.57 0.24,-0.96 0.76,-1.15 0.5,-0.19 2.01,-0.27 4.45,-0.27l26.91 0c2.39,0 3.87,0.05 4.36,0.19 0.53,0.13 0.77,0.52 0.77,1.18 0,0.96 -1.04,1.59 -3.13,1.92 -4.04,0.58 -7.03,2.03 -9.06,4.37 -2.01,2.33 -3.93,5.14 -5.8,8.38 -1.84,3.24 -6.78,16.15 -14.84,38.75 -2.83,7.94 -9.29,25.06 -19.31,51.34z"/>
  </g>
 </g>
</svg>
